<?xml version="1.0" encoding="utf-8"?>
<!-- Generator: Adobe Illustrator 24.2.3, SVG Export Plug-In . SVG Version: 6.00 Build 0)  -->
<svg version="1.1" xmlns="http://www.w3.org/2000/svg" xmlns:xlink="http://www.w3.org/1999/xlink" x="0px" y="0px"
	 viewBox="0 0 14.2 14.2" style="enable-background:new 0 0 14.2 14.2;" xml:space="preserve">
<style type="text/css">
	.st0{clip-path:url(#SVGID_2_);fill:#6DCE0E;}
	.st1{fill:#FFFFFF;}
</style>
<g id="Слой_2">
</g>
<g id="Capa_1">
	<g>
		<defs>
			<circle id="SVGID_1_" cx="7.1" cy="7.1" r="7"/>
		</defs>
		<clipPath id="SVGID_2_">
			<use xlink:href="#SVGID_1_"  style="overflow:visible;"/>
		</clipPath>
		<rect x="-0.9" y="-1" class="st0" width="16.7" height="15.4"/>
	</g>
	<g>
		<path class="st1" d="M11.1,5.6h-0.2c-0.4-1.9-1.9-3.3-3.7-3.3c-1.8,0-3.3,1.4-3.7,3.3H3.2c-0.3,0-0.5,0.2-0.5,0.5v2.9
			c0,0.3,0.2,0.5,0.5,0.5H4c0.3,0,0.5-0.2,0.5-0.5V6.1c0-0.3-0.2-0.5-0.5-0.5H3.8C4.2,4,5.5,2.8,7.1,2.8c1.6,0,2.9,1.2,3.2,2.8h-0.1
			c-0.3,0-0.5,0.2-0.5,0.5v2.9c0,0.3,0.2,0.5,0.4,0.5c-0.3,0.6-1,1.3-2.5,1.5c-0.1-0.2-0.2-0.3-0.4-0.3H6.3c-0.3,0-0.5,0.2-0.5,0.5
			v0.2c0,0.3,0.2,0.5,0.5,0.5h0.9c0.2,0,0.4-0.2,0.5-0.4c1.9-0.2,2.7-1.3,3-1.9h0.4c0.3,0,0.5-0.2,0.5-0.5V6.1
			C11.6,5.8,11.4,5.6,11.1,5.6z"/>
	</g>
</g>
</svg>
