<svg xmlns="http://www.w3.org/2000/svg" xmlns:svgjs="http://svgjs.com/svgjs" xmlns:xlink="http://www.w3.org/1999/xlink" width="288" height="288"><svg xmlns="http://www.w3.org/2000/svg" width="288" height="288" enable-background="new 0 0 95.333 95.332" viewBox="0 0 95.333 95.332"><path fill="#6dce0e" d="M30.512 43.939c-2.348-.676-4.696-1.019-6.98-1.019-3.527 0-6.47.806-8.752 1.793 2.2-8.054 7.485-21.951 18.013-23.516.975-.145 1.774-.85 2.04-1.799l2.301-8.23c.194-.696.079-1.441-.318-2.045s-1.035-1.007-1.75-1.105c-.777-.106-1.569-.16-2.354-.16-12.637 0-25.152 13.19-30.433 32.076-3.1 11.08-4.009 27.738 3.627 38.223 4.273 5.867 10.507 9 18.529 9.313.033.001.065.002.098.002 9.898 0 18.675-6.666 21.345-16.209 1.595-5.705.874-11.688-2.032-16.851C40.971 49.307 36.236 45.586 30.512 43.939zM92.471 54.413c-2.875-5.106-7.61-8.827-13.334-10.474-2.348-.676-4.696-1.019-6.979-1.019-3.527 0-6.471.806-8.753 1.793 2.2-8.054 7.485-21.951 18.014-23.516.975-.145 1.773-.85 2.04-1.799l2.301-8.23c.194-.696.079-1.441-.318-2.045-.396-.604-1.034-1.007-1.75-1.105-.776-.106-1.568-.16-2.354-.16-12.637 0-25.152 13.19-30.434 32.076-3.099 11.08-4.008 27.738 3.629 38.225 4.272 5.866 10.507 9 18.528 9.312.033.001.065.002.099.002 9.897 0 18.675-6.666 21.345-16.209C96.098 65.559 95.376 59.575 92.471 54.413z" class="color000 svgShape"/></svg></svg>